PathFileType	4	(X/Y/Z)	/Users/itak/Documents/Research/Walk-IL/dataset/trc/00073_00006.trc
DataRate	CameraRate	NumFrames	NumMarkers	Units	OrigDataRate	OrigDataStartFrame	OrigNumFrames
100.000000	100.000000	4	53	mm	100.000000	275	735
Frame#	Time	RPSI			LPSI			L3			STRN			T10			C7			CLAV			RBAK			LBAK			LSHO			LUPA			LAEL			LAOL			LWTS			LWPS			LFRA			LIFD			LHPS			LHTS			RSHO			RUPA			RAEL			RWTS			RWPS			RFRA			RIFD			RHTS			RHPS			RBHD			LFHD			RFHD			LBHD			LHIP			RHIP			RASI			LASI			LKNE			LTHI			LANK			LTIP			LTOE			LMT1			LMT5			LHEE			RKNE			RTHI			RANK			RTIP			RTOE			RMT1			RMT5			RHEE			RAOL			
		X1	Y1	Z1	X2	Y2	Z2	X3	Y3	Z3	X4	Y4	Z4	X5	Y5	Z5	X6	Y6	Z6	X7	Y7	Z7	X8	Y8	Z8	X9	Y9	Z9	X10	Y10	Z10	X11	Y11	Z11	X12	Y12	Z12	X13	Y13	Z13	X14	Y14	Z14	X15	Y15	Z15	X16	Y16	Z16	X17	Y17	Z17	X18	Y18	Z18	X19	Y19	Z19	X20	Y20	Z20	X21	Y21	Z21	X22	Y22	Z22	X23	Y23	Z23	X24	Y24	Z24	X25	Y25	Z25	X26	Y26	Z26	X27	Y27	Z27	X28	Y28	Z28	X29	Y29	Z29	X30	Y30	Z30	X31	Y31	Z31	X32	Y32	Z32	X33	Y33	Z33	X34	Y34	Z34	X35	Y35	Z35	X36	Y36	Z36	X37	Y37	Z37	X38	Y38	Z38	X39	Y39	Z39	X40	Y40	Z40	X41	Y41	Z41	X42	Y42	Z42	X43	Y43	Z43	X44	Y44	Z44	X45	Y45	Z45	X46	Y46	Z46	X47	Y47	Z47	X48	Y48	Z48	X49	Y49	Z49	X50	Y50	Z50	X51	Y51	Z51	X52	Y52	Z52	X53	Y53	Z53	

276	2.75	-559.5694580078125	996.01708984375	343.6638488769531	-727.8989868164062	1002.23828125	374.2359008789062	-652.5868530273438	1062.631103515625	359.8306579589844	-668.4339599609375	1251.258544921875	97.15598297119141	-665.5869140625	1193.05419921875	368.0607604980469	-668.709228515625	1459.391357421875	300.8310546875	-666.2610473632812	1366.57080078125	124.0282363891602	-596.7156372070312	1320.331176757812	367.7896423339844	-768.0338745117188	1424.005126953125	324.6680908203125	-839.7963256835938	1429.273559570312	223.2835388183594	-925.0349731445312	1310.107543945312	243.72265625	-976.9205322265625	1104.130859375	215.8819427490234	-889.8624877929688	1073.5458984375	270.4596252441406	-949.4714965820312	875.4802856445312	88.91746520996094	-1002.328735351562	860.4558715820312	152.5782165527344	-998.7139282226562	999.4155883789062	183.8340759277344	-948.820556640625	696.2450561523438	48.46492004394531	-1010.698547363281	786.74951171875	106.7889633178711	-964.9581298828125	800.1259155273438	53.49604034423828	-494.5921630859375	1417.768798828125	242.5736999511719	-433.2591552734375	1351.377197265625	262.1134338378906	-396.5286865234375	1094.713134765625	315.8450927734375	-398.9933166503906	844.224609375	164.9863586425781	-359.4009399414062	829.1596069335938	241.1593475341797	-381.4627990722656	1013.380676269531	304.9517822265625	-419.6561889648438	658.717529296875	160.2562103271484	-392.691650390625	741.4652099609375	139.5061645507812	-349.7378234863281	739.5745239257812	204.5962982177734	-739.95361328125	1650.563598632812	196.405517578125	-533.5116577148438	1646.927978515625	133.9476165771484	-630.3915405273438	1667.862182617188	55.68998718261719	-629.6697998046875	1620.33447265625	272.9590454101562	-837.7236938476562	942.6296997070312	290.2358703613281	-492.8993530273438	923.0169677734375	264.7215881347656	-533.090087890625	944.6353149414062	144.9698791503906	-800.7437133789062	943.9268188476562	169.275634765625	-801.3826904296875	478.4507446289062	291.3291625976562	-830.393310546875	623.6458129882812	297.9007568359375	-797.1041259765625	64.59473419189453	539.9114379882812	-812.887451171875	263.6235961914062	427.2881774902344	-833.7353515625	41.97302627563477	342.3193664550781	-771.6771240234375	44.86269760131836	376.6251831054688	-855.8937377929688	38.12368011474609	451.9968872070312	-712.8416137695312	76.97063446044922	576.7463989257812	-568.1758422851562	506.9161376953125	62.9482307434082	-505.6167907714844	760.5225219726562	147.9958801269531	-641.54638671875	34.85913848876953	-21.70808410644531	-578.3907470703125	386.0400390625	44.30810546875	-626.1327514648438	121.6977691650391	-212.2678527832031	-678.494384765625	101.24658203125	-172.6986083984375	-594.4730834960938	78.68363952636719	-125.5838775634766	-707.8888549804688	30.72682762145996	7.748795032501221	-486.0599060058594	1066.432861328125	284.0291442871094	
277	2.76	-560.092041015625	995.364990234375	335.3071594238281	-728.98046875	1001.786376953125	364.3441772460938	-653.2185668945312	1061.755249023438	350.1846618652344	-665.3886108398438	1250.538940429688	87.56401824951172	-665.8516845703125	1192.3642578125	358.6668395996094	-667.4552001953125	1458.687622070312	291.4809265136719	-663.2674560546875	1365.845581054688	114.5563125610352	-596.3699340820312	1319.470581054688	359.1833190917969	-767.0924072265625	1423.503540039062	314.1703491210938	-837.7537231445312	1428.765991210938	211.9880218505859	-923.1082763671875	1309.616943359375	231.7637939453125	-975.1012573242188	1103.739868164062	204.1788482666016	-888.2623291015625	1073.181030273438	259.3889465332031	-947.3757934570312	874.7205200195312	78.04723358154297	-1000.521484375	859.9207153320312	141.5446624755859	-996.8173217773438	998.955810546875	172.4331207275391	-946.9412841796875	695.4165649414062	37.927490234375	-1008.878173828125	786.1383056640625	95.86652374267578	-962.8908081054688	799.3358764648438	42.71784210205078	-492.7633056640625	1416.678588867188	235.0436859130859	-431.7572631835938	1350.139770507812	255.1606597900391	-395.8868713378906	1093.36279296875	309.0490417480469	-397.2508544921875	842.8018188476562	158.3917846679688	-358.3937072753906	827.8087158203125	234.9385681152344	-380.8656005859375	1012.053527832031	298.3382263183594	-418.0035095214844	657.3157348632812	153.6134796142578	-390.7911987304688	740.055419921875	133.0561981201172	-348.4913024902344	738.1663818359375	198.5793151855469	-737.5767822265625	1649.825317382812	186.3657836914062	-530.5845336914062	1646.37548828125	126.091423034668	-626.6143188476562	1667.23583984375	46.83399963378906	-628.1439819335938	1619.641235351562	264.0393676757812	-837.458984375	941.8767700195312	278.8101806640625	-492.7506408691406	922.4743041992188	256.8094482421875	-531.6697998046875	943.9612426757812	136.7331390380859	-799.69921875	943.1966552734375	158.5841827392578	-801.3057250976562	477.6264953613281	283.4525146484375	-830.376708984375	623.0648803710938	288.8249206542969	-798.121826171875	67.09429931640625	539.2301635742188	-813.651611328125	264.9537353515625	423.2752990722656	-833.7467651367188	41.95871353149414	342.2760314941406	-771.986328125	45.01655578613281	376.4572143554688	-856.3196411132812	38.42133712768555	451.6388549804688	-713.990966796875	81.01225280761719	576.0126953125	-567.6676635742188	506.9929809570312	53.46955490112305	-505.261474609375	760.615478515625	138.6982727050781	-642.4024658203125	34.3846435546875	-23.14692306518555	-578.14892578125	385.0784912109375	36.35411834716797	-625.0283813476562	115.3874969482422	-215.9419860839844	-677.8513793945312	95.98178863525391	-176.5433197021484	-594.4100952148438	74.92337036132812	-127.7616958618164	-708.9892578125	30.97844505310059	5.52991247177124	-485.2522583007812	1065.274536132812	276.4429321289062	
278	2.77	-560.4801025390625	995.0543212890625	326.8200988769531	-729.8721313476562	1001.467895507812	354.2378845214844	-653.7496948242188	1061.101318359375	340.3536682128906	-662.1592407226562	1250.074829101562	77.88607025146484	-665.99658203125	1191.922973632812	349.1643981933594	-666.0364990234375	1458.2197265625	282.0408020019531	-660.0938110351562	1365.370483398438	105.0175399780273	-595.9089965820312	1318.846069335938	350.4902648925781	-765.992431640625	1423.253540039062	303.5817565917969	-835.5430908203125	1428.5087890625	200.594970703125	-920.99169921875	1309.374755859375	219.7374725341797	-973.0220947265625	1103.559936523438	192.5352325439453	-886.393798828125	1073.05322265625	248.3598022460938	-945.07080078125	874.0853271484375	67.39971923828125	-998.4794311523438	859.5521240234375	130.7617492675781	-994.6549072265625	998.6817626953125	161.1893768310547	-944.8701171875	694.691650390625	27.73419570922852	-1006.812316894531	785.6557006835938	85.26248931884766	-960.6549682617188	798.6443481445312	32.2087516784668	-490.7740783691406	1415.802734375	227.4501953125	-430.1259460449219	1349.100341796875	248.1349182128906	-395.1616821289062	1092.199584960938	302.1301574707031	-395.4362487792969	841.5611572265625	151.7057495117188	-357.3358154296875	826.6500244140625	228.6379852294922	-380.2076110839844	1010.909851074219	291.6010131835938	-416.2926330566406	656.0889892578125	146.9050140380859	-388.819580078125	738.8345947265625	126.5360260009766	-347.2119750976562	736.9321899414062	192.4989624023438	-735.0260620117188	1649.356323242188	176.2691192626953	-527.4806518554688	1646.053833007812	118.1930465698242	-622.6710815429688	1666.86572265625	37.93635177612305	-626.4666748046875	1619.193115234375	255.0506744384766	-837.0234375	941.308349609375	267.2538452148438	-492.4655456542969	922.3334350585938	248.7324676513672	-530.1102905273438	943.6469116210938	128.348388671875	-798.4584350585938	942.6531372070312	147.7347869873047	-801.2677612304688	476.7456665039062	274.7159118652344	-830.3126831054688	622.5260009765625	279.1341247558594	-799.3057861328125	69.99786376953125	538.3468627929688	-814.5404052734375	266.5510864257812	418.7416687011719	-833.7351684570312	41.96408081054688	342.2828674316406	-772.3204956054688	45.20357131958008	376.2507934570312	-856.83447265625	38.79035568237305	451.1651611328125	-715.3411865234375	85.69161987304688	574.966064453125	-566.9645385742188	507.3589477539062	43.96113967895508	-504.6829223632812	761.07861328125	129.2405853271484	-643.0281372070312	34.23033905029297	-24.07317543029785	-577.6774291992188	384.4474487304688	28.27229118347168	-624.4083862304688	108.8238906860352	-219.3078308105469	-677.5198974609375	90.57567596435547	-179.8526153564453	-594.5647583007812	71.22599029541016	-129.6093444824219	-709.791015625	31.54774284362793	3.99322509765625	-484.3483581542969	1064.268676757812	268.7374572753906	
279	2.78	-560.72802734375	995.1197509765625	318.2158203125	-730.5453491210938	1001.302551269531	343.9135437011719	-654.1728515625	1060.696044921875	330.3536682128906	-658.7645874023438	1249.8994140625	68.14498138427734	-666.0330810546875	1191.75146484375	339.5696411132812	-664.47705078125	1458.010375976562	272.5236511230469	-656.7593383789062	1365.177612304688	95.43502044677734	-595.3637084960938	1318.47998046875	341.7161865234375	-764.7542724609375	1423.275268554688	292.9228820800781	-833.1844482421875	1428.526123046875	189.1269073486328	-918.706298828125	1309.403930664062	207.6595764160156	-970.6806640625	1103.61376953125	180.9510498046875	-884.2623901367188	1073.1875	237.3651275634766	-942.548828125	873.5943603515625	56.98141098022461	-996.2099609375	859.37890625	120.2220840454102	-992.2363891601562	998.6234130859375	150.0874786376953	-942.5989990234375	694.0836181640625	17.9092960357666	-1004.509460449219	785.328369140625	74.97396087646484	-958.2464599609375	798.0714721679688	21.97796630859375	-488.6600646972656	1415.180419921875	219.8109588623047	-428.3916015625	1348.29931640625	241.0569305419922	-394.3785705566406	1091.267944335938	295.1001586914062	-393.5530700683594	840.548583984375	144.9405059814453	-356.2329406738281	825.7219848632812	222.2772827148438	-379.5063781738281	1009.994506835938	284.7538452148438	-414.5209045410156	655.0762939453125	140.1474914550781	-386.7720947265625	737.8457641601562	119.9681549072266	-345.8955383300781	735.9157104492188	186.3713684082031	-732.31640625	1649.182373046875	166.1163024902344	-524.2119750976562	1645.967041015625	110.2506942749023	-618.5671997070312	1666.755981445312	28.99544906616211	-624.6447143554688	1619.026977539062	246.0038909912109	-836.4363403320312	940.93603515625	255.6016082763672	-492.0226135253906	922.6111450195312	240.5278930664062	-528.405029296875	943.7095947265625	119.8402709960938	-796.994873046875	942.3323364257812	136.7410888671875	-801.32861328125	475.8132934570312	264.9793090820312	-830.2230834960938	622.0428466796875	268.732177734375	-800.6829223632812	73.37850189208984	537.1890869140625	-815.5884399414062	268.4595642089844	413.57958984375	-833.69775390625	41.99458312988281	342.3777160644531	-772.68798828125	45.4293098449707	375.9948425292969	-857.4446411132812	39.24410629272461	450.5582275390625	-716.9273681640625	91.10182952880859	573.4873657226562	-566.0657958984375	508.0087890625	34.52325820922852	-503.8699951171875	761.8789672851562	119.7211151123047	-643.380859375	34.34433364868164	-24.8182315826416	-576.9584350585938	384.1800537109375	20.05837821960449	-624.3521728515625	102.3586578369141	-222.5402526855469	-677.5505981445312	85.33365631103516	-182.7870178222656	-594.9210205078125	67.77701568603516	-131.4107055664062	-710.2431640625	32.38423538208008	2.86120867729187	-483.3549194335938	1063.460205078125	260.9059753417969	
